<?xml version="1.0" encoding="UTF-8" standalone="no"?>
<!-- Created with Inkscape (http://www.inkscape.org/) -->

<svg
   xmlns:dc="http://purl.org/dc/elements/1.1/"
   xmlns:cc="http://creativecommons.org/ns#"
   xmlns:rdf="http://www.w3.org/1999/02/22-rdf-syntax-ns#"
   xmlns:svg="http://www.w3.org/2000/svg"
   xmlns="http://www.w3.org/2000/svg"
   xmlns:sodipodi="http://sodipodi.sourceforge.net/DTD/sodipodi-0.dtd"
   xmlns:inkscape="http://www.inkscape.org/namespaces/inkscape"
   width="268.90039mm"
   height="32.791321mm"
   viewBox="0 0 952.79666 116.18972"
   id="svg2"
   version="1.1"
   inkscape:version="0.91 r13725"
   sodipodi:docname="wavefront-inkscape.svg">
  <defs
     id="defs4" />
  <sodipodi:namedview
     id="base"
     pagecolor="#ffffff"
     bordercolor="#666666"
     borderopacity="1.0"
     inkscape:pageopacity="0.0"
     inkscape:pageshadow="2"
     inkscape:zoom="0.49497475"
     inkscape:cx="879.03911"
     inkscape:cy="-43.151875"
     inkscape:document-units="px"
     inkscape:current-layer="layer1"
     showgrid="false"
     height="40mm"
     fit-margin-top="0"
     fit-margin-left="0"
     fit-margin-right="0"
     fit-margin-bottom="0"
     inkscape:window-width="1366"
     inkscape:window-height="725"
     inkscape:window-x="0"
     inkscape:window-y="19"
     inkscape:window-maximized="1" />
  <metadata
     id="metadata7">
    <rdf:RDF>
      <cc:Work
         rdf:about="">
        <dc:format>image/svg+xml</dc:format>
        <dc:type
           rdf:resource="http://purl.org/dc/dcmitype/StillImage" />
        <dc:title></dc:title>
      </cc:Work>
    </rdf:RDF>
  </metadata>
  <g
     inkscape:label="Layer 1"
     inkscape:groupmode="layer"
     id="layer1"
     transform="translate(-42.086283,-584.28373)">
    <g
       style="font-style:normal;font-variant:normal;font-weight:normal;font-stretch:normal;font-size:153.89367676px;line-height:125%;font-family:'Nimbus Sans L';-inkscape-font-specification:'Nimbus Sans L';letter-spacing:0px;word-spacing:0px;fill:#000000;fill-opacity:1;stroke:none;stroke-width:1px;stroke-linecap:butt;stroke-linejoin:miter;stroke-opacity:1"
       id="text4155">
      <path
         d="m 42.086283,666.46295 75.254007,31.85599 0,-12.1576 -60.634107,-25.23856 60.634107,-24.77688 0,-12.1576 -75.254007,31.85599 0,10.61866 z"
         style="fill:#1a1a1a"
         id="path4253" />
      <path
         d="m 239.52947,696.9339 28.47033,-112.18849 -16.00494,0 -20.62176,91.10506 -25.54635,-91.10506 -15.38936,0 -24.93078,91.10506 -21.08343,-91.10506 -16.00495,0 28.77812,112.18849 15.69716,0 25.08467,-92.18231 25.85413,92.18231 15.69716,0 z"
         style="font-style:normal;font-variant:normal;font-weight:normal;font-stretch:normal;font-family:'Nimbus Sans L';-inkscape-font-specification:'Nimbus Sans L';fill:#d40000"
         id="path4255" />
      <path
         d="m 352.54274,689.39311 c -1.38504,0.30779 -2.00062,0.30779 -2.77009,0.30779 -4.46291,0 -6.92521,-2.30841 -6.92521,-6.30964 l 0,-47.39926 c 0,-14.31211 -10.46477,-22.00679 -30.31706,-22.00679 -11.69592,0 -21.39122,3.38566 -26.7775,9.38751 -3.69345,4.15513 -5.23238,8.77194 -5.54017,16.77441 l 12.92707,0 c 1.07726,-9.84919 6.92521,-14.31211 18.92892,-14.31211 11.54203,0 18.00556,4.30902 18.00556,12.00371 l 0,3.38566 c 0,5.38628 -3.23177,7.69468 -13.38875,8.92583 -18.15945,2.30841 -20.92954,2.92398 -25.85414,4.9246 -9.38751,3.84734 -14.15821,11.08034 -14.15821,21.54511 0,14.6199 10.15698,23.85352 26.46971,23.85352 10.15698,0 18.31335,-3.53955 27.39307,-11.84981 0.92336,8.15637 4.9246,11.84981 13.23486,11.84981 2.61619,0 4.61681,-0.30778 8.77194,-1.38504 l 0,-9.6953 z m -22.46848,-17.85167 c 0,4.30903 -1.23115,6.92522 -5.07849,10.46477 -5.23238,4.77071 -11.54203,7.23301 -19.08282,7.23301 -10.00308,0 -15.85104,-4.77071 -15.85104,-12.92707 0,-8.46416 5.69406,-12.77318 19.3906,-14.7738 13.54264,-1.84672 16.31273,-2.4623 20.62175,-4.46291 l 0,14.466 z"
         style="font-style:normal;font-variant:normal;font-weight:normal;font-stretch:normal;font-family:'Nimbus Sans L';-inkscape-font-specification:'Nimbus Sans L';fill:#d40000"
         id="path4257" />
      <path
         d="m 399.7328,696.9339 30.93263,-80.64029 -14.466,0 -22.77627,65.40481 -21.54511,-65.40481 -14.46601,0 28.31644,80.64029 14.00432,0 z"
         style="font-style:normal;font-variant:normal;font-weight:normal;font-stretch:normal;font-family:'Nimbus Sans L';-inkscape-font-specification:'Nimbus Sans L';fill:#d40000"
         id="path4259" />
      <path
         d="m 511.7674,660.92278 c 0,-12.3115 -0.92336,-19.69839 -3.23177,-25.70025 -5.23238,-13.23485 -17.54388,-21.23732 -32.62546,-21.23732 -22.46847,0 -36.93448,17.23609 -36.93448,43.7058 0,26.46971 14.00432,42.78244 36.62669,42.78244 18.46725,0 31.24042,-10.46477 34.47219,-28.00865 l -12.92707,0 c -3.53956,10.61867 -10.77256,16.15884 -21.08343,16.15884 -8.15637,0 -15.08158,-3.69345 -19.39061,-10.46477 -3.07787,-4.61681 -4.15513,-9.23362 -4.30902,-17.23609 l 59.40296,0 z m -59.09517,-10.46477 c 1.07725,-14.92769 10.15698,-24.62299 23.08405,-24.62299 12.61928,0 22.31458,10.46477 22.31458,23.69963 0,0.30778 0,0.61557 -0.15389,0.92336 l -45.24474,0 z"
         style="font-style:normal;font-variant:normal;font-weight:normal;font-stretch:normal;font-family:'Nimbus Sans L';-inkscape-font-specification:'Nimbus Sans L';fill:#d40000"
         id="path4261" />
      <path
         d="m 558.18796,616.29361 -13.38875,0 0,-12.61928 c 0,-5.38628 3.07788,-8.15636 8.92584,-8.15636 1.07725,0 1.53893,0 4.46291,0.15389 l 0,-10.61866 c -2.92398,-0.61558 -4.61681,-0.76947 -7.233,-0.76947 -11.84981,0 -18.92892,6.77132 -18.92892,18.31335 l 0,13.69653 -10.77256,0 0,10.46477 10.77256,0 0,70.17552 12.77317,0 0,-70.17552 13.38875,0 0,-10.46477 z"
         style="font-style:normal;font-variant:normal;font-weight:normal;font-stretch:normal;font-family:'Nimbus Sans L';-inkscape-font-specification:'Nimbus Sans L';fill:#d40000"
         id="path4263" />
      <path
         d="m 571.78352,616.29361 0,80.64029 12.92706,0 0,-41.85908 c 0,-11.54203 2.92398,-19.08282 9.07973,-23.54573 4.00124,-2.92398 7.84858,-3.84735 16.77441,-4.00124 l 0,-13.08096 c -2.15451,-0.30779 -3.23176,-0.46168 -4.9246,-0.46168 -8.31025,0 -14.61989,4.92459 -22.00679,16.9283 l 0,-14.6199 -11.84981,0 z"
         style="font-style:normal;font-variant:normal;font-weight:normal;font-stretch:normal;font-family:'Nimbus Sans L';-inkscape-font-specification:'Nimbus Sans L';fill:#d40000"
         id="path4265" />
      <path
         d="m 654.422,613.98521 c -22.62237,0 -36.3189,16.15883 -36.3189,43.24412 0,27.08529 13.54264,43.24412 36.4728,43.24412 22.62237,0 36.4728,-16.15883 36.4728,-42.62854 0,-27.85476 -13.38875,-43.8597 -36.6267,-43.8597 z m 0.1539,11.84981 c 14.466,0 23.08405,11.84981 23.08405,31.85599 0,18.92892 -8.92583,30.93263 -23.08405,30.93263 -14.31211,0 -23.08405,-11.84981 -23.08405,-31.39431 0,-19.3906 8.77194,-31.39431 23.08405,-31.39431 z"
         style="font-style:normal;font-variant:normal;font-weight:normal;font-stretch:normal;font-family:'Nimbus Sans L';-inkscape-font-specification:'Nimbus Sans L';fill:#d40000"
         id="path4267" />
      <path
         d="m 708.99899,616.29361 0,80.64029 12.92707,0 0,-44.47527 c 0,-16.46663 8.61805,-27.23918 21.8529,-27.23918 10.15699,0 16.62052,6.15574 16.62052,15.85104 l 0,55.86341 12.77318,0 0,-60.9419 c 0,-13.38875 -10.00309,-22.00679 -25.54635,-22.00679 -12.00371,0 -19.69839,4.61681 -26.7775,15.85105 l 0,-13.54265 -11.84982,0 z"
         style="font-style:normal;font-variant:normal;font-weight:normal;font-stretch:normal;font-family:'Nimbus Sans L';-inkscape-font-specification:'Nimbus Sans L';fill:#d40000"
         id="path4269" />
      <path
         d="m 822.97888,616.29361 -13.23485,0 0,-22.16069 -12.77318,0 0,22.16069 -10.92645,0 0,10.46477 10.92645,0 0,60.9419 c 0,8.15636 5.54017,12.77317 15.54326,12.77317 3.07788,0 6.15575,-0.30778 10.46477,-1.07725 l 0,-10.77256 c -1.69283,0.46168 -3.69345,0.61558 -6.15574,0.61558 -5.54018,0 -7.07911,-1.53894 -7.07911,-7.23301 l 0,-55.24783 13.23485,0 0,-10.46477 z"
         style="font-style:normal;font-variant:normal;font-weight:normal;font-stretch:normal;font-family:'Nimbus Sans L';-inkscape-font-specification:'Nimbus Sans L';fill:#d40000"
         id="path4271" />
      <path
         d="m 904.49446,584.74541 -36.47281,115.26636 8.46416,0 36.4728,-115.26636 -8.46415,0 z"
         style="fill:#1a1a1a"
         id="path4273" />
      <path
         d="m 994.88295,655.84429 -75.254,-31.85599 0,12.1576 60.6341,25.23856 -60.6341,24.77688 0,12.1576 75.254,-31.85599 0,-10.61866 z"
         style="fill:#1a1a1a"
         id="path4275" />
    </g>
  </g>
</svg>
